<?xml version="1.0" encoding="UTF-8"?>
<svg id="Layer_1" data-name="Layer 1" xmlns="http://www.w3.org/2000/svg" viewBox="0 0 1101.3 206.91">
  <defs>
    <style>
      .cls-1 {
        fill: none;
      }

      .cls-2 {
        fill: #012d6d;
      }

      .cls-3 {
        fill: #ba0000;
      }

      .cls-4 {
        fill: #e7000a;
      }

      .cls-5 {
        fill: #fff;
      }

      .cls-6 {
        fill: #fcfcfc;
      }
    </style>
  </defs>
  <path class="cls-6" d="M192.75,2.73l-2.07,37.74c-1.73,30.33-3.36,65.05-4.9,104.16-1.56-38.69-4.16-86-7.81-141.9h-31.38l17.2,202.95h45.19L224.13,2.73h-31.38Z"/>
  <path class="cls-6" d="M258.9,165.06v-44.62h18.59v-38.61h-18.59v-38.48h19.86V2.73h-49.62v202.95h51.6v-40.62h-21.84Z"/>
  <path class="cls-6" d="M351.2,110.16c-2.02-4.35-5.98-7.81-11.87-10.41,6.5-1.08,10.86-4.34,13.08-9.77,2.21-5.43,3.32-16.05,3.32-31.84,0-17.3-1.57-29.9-4.7-37.8-3.14-7.89-7.19-12.8-12.16-14.73-4.97-1.92-14.48-2.88-28.52-2.88h-21.06v202.95h29.76v-91.51c4.1,0,6.63,1.3,7.59,3.89.97,2.59,1.45,9.32,1.45,20.18v67.44h27.64v-53.53c0-16.38-.25-26.38-.74-30.02-.5-3.64-1.76-7.62-3.79-11.97ZM328.09,64.28c0,8.94-.67,14.23-2.01,15.86-1.34,1.63-3.69,2.44-7.03,2.44v-45.13c3.44,0,5.8,1.01,7.1,3.01,1.29,2.01,1.94,6.23,1.94,12.66v11.16Z"/>
  <path class="cls-6" d="M397,165.06v-44.62h18.59v-38.61h-18.59v-38.48h19.86V2.73h-49.61v202.95h51.59v-40.62h-21.84Z"/>
  <path class="cls-6" d="M491.96,110.93c-3.44-8.63-11.79-19.68-25.03-33.15-4.62-4.67-7.42-8.66-8.41-11.98-1.03-3.31-1.55-8.23-1.55-14.77,0-5.09.46-8.88,1.38-11.39.92-2.5,2.27-3.75,4.06-3.75,1.65,0,2.83.93,3.54,2.78.7,1.86,1.06,6.18,1.06,12.95v14.53h27.63v-7.75c0-15.57-.88-26.61-2.65-33.1-1.77-6.5-5.37-11.88-10.81-16.16-5.45-4.27-12.03-6.41-19.76-6.41-7.07,0-13.1,1.95-18.09,5.87-5,3.91-8.61,9.34-10.85,16.28-2.24,6.94-3.36,17.91-3.36,32.92,0,10.4.79,18.96,2.37,25.65,1.58,6.7,3.57,11.95,5.97,15.74,2.41,3.79,7.31,9.88,14.7,18.27,7.4,8.32,12.04,14.25,13.93,17.8,1.84,3.55,2.75,11.09,2.75,22.63,0,5.24-.48,9.2-1.44,11.86-.97,2.66-2.44,3.99-4.42,3.99s-3.36-1.04-4.14-3.14c-.77-2.1-1.16-6.82-1.16-14.16v-23.85h-27.64v12.83c0,14.69.87,26.02,2.62,34.01,1.74,7.99,5.43,14.57,11.06,19.73s12.43,7.75,20.39,7.75c7.25,0,13.62-2.24,19.08-6.72,5.47-4.48,9.15-10.03,11.06-16.64,1.91-6.62,2.86-16.91,2.86-30.87,0-19.2-1.72-33.12-5.15-41.75Z"/>
  <path class="cls-6" d="M497.11,2.73v40.61h17.6v162.33h29.76V43.34h17.67V2.73h-65.03Z"/>
  <path class="cls-4" d="M763.35,1.33v91.38L743.79,1.33h-29.16v202.95h29.16v-92.26l18.15,92.26h30.57V1.33h-29.16Z"/>
  <path class="cls-4" d="M883.48,35.83c-2.04-9.4-6.43-17.52-13.17-24.36-6.74-6.84-15.22-10.26-25.44-10.26s-18.85,3.94-25.39,11.81c-6.55,7.87-10.51,16.54-11.89,25.99-1.38,9.45-2.07,24.62-2.07,45.5v15.8h34.88v-37.27c0-11.16.38-18.09,1.16-20.79.77-2.7,2.24-4.05,4.39-4.05,2.48,0,4.06,1.58,4.72,4.72.66,3.15,1,10.99,1,23.5v19.84h34.88v-9.44c0-17.91-1.03-31.57-3.07-40.98Z"/>
  <path class="cls-5" d="M886.55,105.73v94.32h-21.92l-3.23-12.6c-2.38,5.43-5.38,9.5-8.99,12.22-3.63,2.7-7.9,4.07-12.81,4.07-5.87,0-11.35-1.87-16.46-5.59-5.12-3.72-9-8.34-11.65-13.84-2.66-5.49-4.32-11.27-4.98-17.31-.66-6.04-.99-15.1-.99-27.18v-39.5h34.88v54.37c0,7.89.38,13.08,1.16,15.57.77,2.5,2.32,3.75,4.64,3.75,2.54,0,4.26-1.42,5.18-4.24.91-2.82,1.36-8.32,1.36-16.49v-20.85h0c-3.89,0-7.04-2.84-7.04-6.35v-20.35h40.85Z"/>
  <path class="cls-4" d="M900.05,1.33v202.95h34.88V1.33h-34.88Z"/>
  <path class="cls-4" d="M997.65,1.33v91.38L978.1,1.33h-29.17v202.95h29.17v-92.26l18.14,92.26h30.58V1.33h-29.17Z"/>
  <path class="cls-4" d="M1075.7,163.67v-44.63h21.79v-38.61h-21.79v-38.48h23.28V1.33h-58.16v202.95h60.48v-40.61h-25.6Z"/>
  <path class="cls-6" d="M217.09,108.98s-.08.07-.11.12c-.02-.02-.04-.05-.06-.06-.02-.02-.04-.04-.06-.05h.23Z"/>
  <path class="cls-2" d="M197.92,133.15s.01.09.03.14h-.05s-.01-.09-.02-.14h.04Z"/>
  <path class="cls-6" d="M130.02,192.67c-.05,6.52,1.89,11.77-10.06,11.9l-21.9.21,1.62-.02-22,.21-27.68.27c-18.24-8.49-33.06-33.62-39.33-66.18-.02-.05-.03-.12-.04-.17-.03-.14-.05-.29-.08-.43-.03-.13-.05-.24-.07-.37h.1c0,.05.02.12.03.17l35.47-.34c.03.05.05.1.08.15,12.72,23.01,39.46,38.85,70.38,38.85,4.52,0,8.97-.34,13.28-1l.19,16.74Z"/>
  <path class="cls-6" d="M142.44,80.06c-.09.06-.14.12-.2.19-.03-.03-.07-.07-.11-.1-.04-.03-.07-.06-.11-.09h.43Z"/>
  <path class="cls-4" d="M130.37,15.16c-1.12-6.03,3.03-14.55-20.71-12.85l-59.07.54C32.12,11.47,16.97,37.72,10.47,71.81h.11l15.04-.11,22.13-.15c.09-.15.18-.31.27-.46.46-.76.93-1.52,1.41-2.27,13.69-21.14,38.63-35.27,67.12-35.27,4.63,0,9.16.37,13.56,1.09l.33-17.99c.01-.47.02-1.03-.07-1.49Z"/>
  <path class="cls-2" d="M.09,154.86c.01.09.03.19.06.28H.04c-.01-.09-.03-.19-.04-.28h.09Z"/>
  <path class="cls-4" d="M108,138.53v.29l-18.36.2-63.52.67c-.05-.08-.1-.16-.15-.24h-.64c.05.09.09.17.14.25h.53s.12,0,.12,0c0,.02.03.04.04.06l52.82-.59,29.02-.34v.41l-18.36.2-63.52.68c-.05-.08-.1-.16-.15-.24h-.57c-.08-.13-.16-.28-.25-.43h.18c-.19-.33-.38-.65-.56-.99-5.58-9.82-8.71-20.86-8.71-32.52,0-.39,0-.78,0-1.17,0-.33.02-.64.02-.96h45.05c.92,1.21,1.6,2.55,2.07,3.99,2.12,7.48,6.31,14.23,11.88,19.57,1.89,1.85,4.02,3.45,6.52,4.81v.03c2.63,1.46,5.7,2.67,9.36,3.64.78.2,1.58.41,2.4.58,4.12.93,8.92,1.62,14.61,2.1Z"/>
  <path class="cls-3" d="M.09,154.86c.01.09.03.19.06.28H.04c-.01-.09-.03-.19-.04-.28h.09Z"/>
  <path class="cls-1" d="M58.06,50.57c-.14.23-.28.48-.43.72"/>
  <path class="cls-6" d="M60.91,102.14H15.86c0-.07,0-.13,0-.2.49-11.91,4.59-23.07,11.44-32.76l77.94-1.29v.27c-4.87.51-9.09,1.16-12.74,1.98-1.27.28-2.48.6-3.63.92-3.52.98-6.45,2.17-8.99,3.58h0c-2.39,1.32-4.4,2.86-6.19,4.6-5.25,5.03-9.16,11.31-11.02,18.2l-2.24,4.14c.16.18.32.36.47.55Z"/>
  <path class="cls-6" d="M709.78,190.7c-.06,6.76,2.07,12.19-10.99,12.33l-23.91.22,1.77-.02-24.03.22-30.23.28c-19.92-8.8-36.1-34.84-42.95-68.58-.02-.06-.03-.12-.04-.18-.03-.15-.06-.3-.09-.45-.03-.13-.06-.25-.08-.38h.11c.01.06.02.12.03.18l38.74-.35c.03.06.06.1.09.16,13.89,23.84,43.09,40.26,76.86,40.26,4.94,0,9.79-.35,14.5-1.04l.21,17.35Z"/>
  <path class="cls-4" d="M710.16,12.9c-1.22-5.95,3.31-14.35-22.62-12.68l-64.51.54c-20.17,8.5-36.72,34.38-43.82,68h.12l16.42-.1,24.17-.15c.1-.15.2-.31.3-.46.5-.76,1.01-1.5,1.55-2.24,14.95-20.84,42.18-34.77,73.3-34.77,5.05,0,10,.36,14.81,1.07l.36-17.74c0-.47.02-1.02-.08-1.47Z"/>
  <path class="cls-4" d="M685.73,134.56v.28l-20.05.2-69.37.66c-.05-.08-.11-.16-.16-.23h-.7c.05.09.1.17.15.24h.58s.13,0,.13,0c0,.02.03.04.04.06l57.69-.59,31.69-.33v.4l-20.05.2-69.37.67c-.05-.08-.11-.16-.16-.23h-.62c-.09-.13-.18-.27-.27-.42h.2c-.21-.32-.42-.64-.61-.98-6.09-9.69-9.51-20.57-9.51-32.07,0-.38,0-.77.01-1.15.01-.32.02-.63.02-.95h49.21c1,1.19,1.75,2.51,2.26,3.94,2.31,7.37,6.89,14.03,12.97,19.3,2.06,1.83,4.39,3.4,7.12,4.75v.03c2.87,1.44,6.22,2.64,10.22,3.59.85.2,1.72.4,2.62.58,4.5.92,9.74,1.6,15.95,2.07Z"/>
  <path class="cls-6" d="M634.3,98.67h-49.21c0-.07,0-.13,0-.2.54-11.75,5.01-22.75,12.49-32.3l85.12-1.27v.27c-5.32.5-9.92,1.15-13.91,1.95-1.39.28-2.71.59-3.96.91-3.84.97-7.04,2.14-9.81,3.53h.01c-2.61,1.31-4.8,2.82-6.76,4.53-5.73,4.96-10,11.15-12.03,17.95l-2.45,4.09c.18.18.35.35.51.54Z"/>
  <path class="cls-2" d="M584.49,154.86c.02.09.03.19.06.28h-.11c-.02-.09-.03-.19-.05-.28h.09Z"/>
  <path class="cls-3" d="M584.49,154.86c.02.09.03.19.06.28h-.11c-.02-.09-.03-.19-.05-.28h.09Z"/>
</svg>