<?xml version="1.0" encoding="UTF-8"?>
<svg id="Layer_1" data-name="Layer 1" xmlns="http://www.w3.org/2000/svg" viewBox="0 0 1101.3 206.9">
  <defs>
    <style>
      .cls-1 {
        fill: none;
      }

      .cls-2 {
        fill: #012d6d;
      }

      .cls-3 {
        fill: #ba0000;
      }

      .cls-4 {
        fill: #fcfcfc;
      }
    </style>
  </defs>
  <path class="cls-4" d="M224.13,2.73l-15.14,202.95h-45.2L146.59,2.73h31.38c3.65,55.9,6.25,103.21,7.81,141.9,1.54-39.11,3.17-73.83,4.9-104.16l2.07-37.74h31.38Z"/>
  <path class="cls-4" d="M229.14,2.73h49.62v40.61h-19.86v38.48h18.59v38.61h-18.59v44.63h21.84v40.61h-51.59V2.73Z"/>
  <path class="cls-4" d="M289.29,2.73h21.06c14.04,0,23.55.96,28.52,2.88,4.97,1.92,9.02,6.83,12.16,14.73,3.13,7.9,4.7,20.5,4.7,37.79,0,15.79-1.11,26.41-3.32,31.84-2.22,5.43-6.57,8.69-13.08,9.78,5.89,2.59,9.85,6.06,11.87,10.4,2.03,4.35,3.29,8.34,3.78,11.97s.74,13.64.74,30.02v53.53h-27.63v-67.44c0-10.86-.48-17.59-1.45-20.18-.97-2.59-3.5-3.89-7.6-3.89v91.51h-29.75V2.73ZM319.04,37.45v45.13c3.35,0,5.69-.81,7.03-2.44,1.34-1.63,2.01-6.91,2.01-15.86v-11.16c0-6.43-.65-10.66-1.94-12.66-1.3-2.01-3.66-3.01-7.1-3.01Z"/>
  <path class="cls-4" d="M367.25,2.73h49.62v40.61h-19.86v38.48h18.59v38.61h-18.59v44.63h21.84v40.61h-51.59V2.73Z"/>
  <path class="cls-4" d="M494.64,66.14h-27.63v-14.52c0-6.78-.35-11.09-1.06-12.95-.71-1.85-1.89-2.78-3.53-2.78-1.79,0-3.15,1.25-4.06,3.76s-1.38,6.3-1.38,11.38c0,6.54.52,11.47,1.55,14.78.99,3.31,3.79,7.31,8.41,11.98,13.25,13.46,21.59,24.51,25.03,33.14,3.44,8.64,5.16,22.55,5.16,41.76,0,13.96-.95,24.25-2.86,30.86-1.91,6.62-5.6,12.16-11.06,16.64-5.47,4.48-11.83,6.72-19.08,6.72-7.96,0-14.76-2.58-20.39-7.75-5.63-5.16-9.32-11.74-11.06-19.73-1.74-7.99-2.62-19.32-2.62-34.01v-12.83h27.63v23.84c0,7.34.39,12.06,1.17,14.16.78,2.1,2.16,3.15,4.13,3.15s3.45-1.33,4.42-3.99c.97-2.66,1.45-6.62,1.45-11.86,0-11.54-.92-19.08-2.76-22.63-1.88-3.55-6.53-9.48-13.92-17.79-7.4-8.39-12.3-14.48-14.7-18.28-2.4-3.79-4.39-9.04-5.97-15.73-1.58-6.7-2.37-15.25-2.37-25.66,0-15.01,1.12-25.98,3.36-32.92,2.24-6.94,5.85-12.36,10.85-16.28,4.99-3.91,11.03-5.87,18.09-5.87,7.73,0,14.31,2.14,19.75,6.41,5.44,4.28,9.05,9.66,10.81,16.16,1.77,6.5,2.65,17.53,2.65,33.1v7.75Z"/>
  <path class="cls-4" d="M562.14,2.72v40.61h-17.67v162.33h-29.75V43.34h-17.6V2.72h65.02Z"/>
  <path class="cls-3" d="M792.51,1.33v202.95h-30.57l-18.14-92.26v92.26h-29.16V1.33h29.16l19.55,91.38V1.33h29.16Z"/>
  <path class="cls-3" d="M886.55,77.04h-34.88v-17.69c0-11.15-.33-18.14-.99-20.95-.66-2.81-2.24-4.21-4.72-4.21-2.15,0-3.62,1.2-4.39,3.61-.77,2.41-1.16,8.59-1.16,18.54v93.53c0,8.75.39,14.51,1.16,17.27.77,2.77,2.32,4.15,4.64,4.15,2.54,0,4.27-1.56,5.18-4.69.91-3.13,1.37-9.23,1.37-18.3v-23.11h-7.04v-29.61h40.85v104.61h-21.92l-3.23-13.96c-2.38,6.02-5.38,10.53-9,13.54-3.62,3.01-7.89,4.51-12.81,4.51-5.86,0-11.35-2.07-16.46-6.2-5.11-4.13-9-9.25-11.65-15.35-2.65-6.1-4.31-12.5-4.98-19.2-.66-6.7-.99-16.75-.99-30.15v-57.9c0-18.62.69-32.14,2.07-40.57,1.38-8.43,5.34-16.15,11.89-23.17,6.55-7.02,15.01-10.53,25.39-10.53s18.7,3.05,25.44,9.15c6.74,6.1,11.13,13.34,13.17,21.73,2.04,8.39,3.07,20.57,3.07,36.53v8.43Z"/>
  <path class="cls-3" d="M934.93,1.33v202.95h-34.88V1.33h34.88Z"/>
  <path class="cls-3" d="M1026.82,1.33v202.95h-30.57l-18.14-92.26v92.26h-29.16V1.33h29.16l19.55,91.38V1.33h29.16Z"/>
  <path class="cls-3" d="M1040.82,1.33h58.16v40.61h-23.28v38.48h21.79v38.61h-21.79v44.63h25.6v40.61h-60.48V1.33Z"/>
  <path class="cls-4" d="M217.09,108.98s-.08.07-.11.12c-.02-.02-.04-.05-.06-.06-.02-.02-.04-.04-.06-.05h.23Z"/>
  <path class="cls-2" d="M197.92,133.15s.01.09.03.14h-.05s-.01-.09-.02-.14h.04Z"/>
  <path class="cls-4" d="M130.02,192.67c-.05,6.52,1.89,11.77-10.06,11.9l-21.9.21,1.62-.02-22,.21-27.68.27c-18.24-8.49-33.06-33.62-39.33-66.18-.02-.05-.03-.12-.04-.17-.03-.14-.05-.29-.08-.43-.03-.13-.05-.24-.07-.37h.1c0,.05.02.12.03.17l35.47-.34c.03.05.05.1.08.15,12.72,23.01,39.46,38.85,70.38,38.85,4.52,0,8.97-.34,13.28-1l.19,16.74Z"/>
  <path class="cls-4" d="M142.44,80.06c-.09.06-.14.12-.2.19-.03-.03-.07-.07-.11-.1-.04-.03-.07-.06-.11-.09h.43Z"/>
  <path class="cls-3" d="M130.37,15.16c-1.12-6.03,3.03-14.55-20.71-12.85l-59.07.54C32.12,11.47,16.97,37.71,10.47,71.8h.11l37.17-.26c.09-.15.18-.31.27-.46,13.35-22.39,39.03-37.54,68.53-37.54,4.63,0,9.16.37,13.56,1.09l.33-17.99c0-.47.02-1.03-.07-1.5Z"/>
  <path class="cls-2" d="M.09,154.86c.01.09.03.19.06.28H.04c-.01-.09-.03-.19-.04-.28h.09Z"/>
  <path class="cls-3" d="M108,138.53v.29l-18.36.2-63.52.67c-.05-.08-.1-.16-.15-.24h-.64c.05.09.09.17.14.25h.53s.12,0,.12,0c0,.02.03.04.04.06l52.82-.59,29.02-.34v.41l-18.36.2-63.52.68c-.05-.08-.1-.16-.15-.24h-.57c-.08-.13-.16-.28-.25-.43h.18c-.19-.33-.38-.65-.56-.99-5.58-9.82-8.71-20.86-8.71-32.52,0-.39,0-.78,0-1.17,0-.33.02-.64.02-.96h45.05c.92,1.21,1.6,2.55,2.07,3.99,2.12,7.48,6.31,14.23,11.88,19.57,1.89,1.85,4.02,3.45,6.52,4.81v.03c2.63,1.46,5.7,2.67,9.36,3.64.78.2,1.58.41,2.4.58,4.12.93,8.92,1.62,14.61,2.1Z"/>
  <path class="cls-3" d="M.09,154.86c.01.09.03.19.06.28H.04c-.01-.09-.03-.19-.04-.28h.09Z"/>
  <path class="cls-1" d="M58.06,50.57c-.14.23-.28.48-.43.72"/>
  <path class="cls-4" d="M60.91,102.14H15.86c0-.07,0-.13,0-.2.49-11.91,4.59-23.07,11.44-32.76l77.94-1.29v.27c-4.87.51-9.09,1.16-12.74,1.98-1.27.28-2.48.6-3.63.92-3.52.98-6.45,2.17-8.99,3.58h0c-2.39,1.32-4.4,2.86-6.19,4.6-5.25,5.03-9.16,11.31-11.02,18.2l-2.24,4.14c.16.18.32.36.47.55Z"/>
  <path class="cls-4" d="M709.78,190.7c-.06,6.76,2.07,12.19-10.99,12.33l-23.91.22,1.77-.02-24.03.22-30.23.28c-19.92-8.8-36.1-34.84-42.95-68.58-.02-.06-.03-.12-.04-.18-.03-.15-.06-.3-.09-.45-.03-.13-.06-.25-.08-.38h.11c.01.06.02.12.03.18l38.74-.35c.03.06.06.1.09.16,13.89,23.84,43.09,40.26,76.86,40.26,4.94,0,9.79-.35,14.5-1.04l.21,17.35Z"/>
  <path class="cls-3" d="M710.16,12.89c-1.22-5.94,3.31-14.35-22.62-12.68l-64.51.54c-20.18,8.5-36.72,34.39-43.82,68.01h.12l40.59-.25c.1-.15.2-.31.3-.46,14.57-22.08,42.62-37.02,74.84-37.02,5.05,0,10,.36,14.81,1.07l.36-17.74c.01-.47.02-1.02-.08-1.47Z"/>
  <path class="cls-3" d="M685.73,134.56v.28l-20.05.2-69.37.66c-.05-.08-.11-.16-.16-.23h-.7c.05.09.1.17.15.24h.58s.13,0,.13,0c0,.02.03.04.04.06l57.69-.59,31.69-.33v.4l-20.05.2-69.37.67c-.05-.08-.11-.16-.16-.23h-.62c-.09-.13-.18-.27-.27-.42h.2c-.21-.32-.42-.64-.61-.98-6.09-9.69-9.51-20.57-9.51-32.07,0-.38,0-.77.01-1.15.01-.32.02-.63.02-.95h49.21c1,1.19,1.75,2.51,2.26,3.94,2.31,7.37,6.89,14.03,12.97,19.3,2.06,1.83,4.39,3.4,7.12,4.75v.03c2.87,1.44,6.22,2.64,10.22,3.59.85.2,1.72.4,2.62.58,4.5.92,9.74,1.6,15.95,2.07Z"/>
  <path class="cls-4" d="M634.3,98.67h-49.21c0-.07,0-.13,0-.2.54-11.75,5.01-22.75,12.49-32.3l85.12-1.27v.27c-5.32.5-9.92,1.15-13.91,1.95-1.39.28-2.71.59-3.96.91-3.84.97-7.04,2.14-9.81,3.53h.01c-2.61,1.31-4.8,2.82-6.76,4.53-5.73,4.96-10,11.15-12.03,17.95l-2.45,4.09c.18.18.35.35.51.54Z"/>
  <path class="cls-2" d="M584.49,154.86c.02.09.03.19.06.28h-.11c-.02-.09-.03-.19-.05-.28h.09Z"/>
  <path class="cls-3" d="M584.49,154.86c.02.09.03.19.06.28h-.11c-.02-.09-.03-.19-.05-.28h.09Z"/>
</svg>