<?xml version="1.0" encoding="UTF-8"?>
<svg id="Layer_1" data-name="Layer 1" xmlns="http://www.w3.org/2000/svg" viewBox="0 0 879.47 292.84">
  <defs>
    <style>
      .cls-1 {
        fill: #033584;
      }

      .cls-2 {
        fill: #f2082a;
      }

      .cls-3 {
        fill: #032e84;
      }

      .cls-4 {
        fill: #eff3f9;
      }
    </style>
  </defs>
  <circle class="cls-4" cx="423.41" cy="109.18" r="109.18"/>
  <g>
    <path class="cls-1" d="M365.23,162.23l-.99-2.38c15.9-27.7,26.75-46.98,32.54-57.83-1.39-8.95,1.72-15.01,9.34-18.18,1.9-.79,4.11-1.25,6.61-1.36l1.6,1.54c-.03.94.26,2.14.86,3.59.52,1.25,2.15,3.31,4.88,6.16,2.73,2.85,4.94,5.28,6.63,7.29,1.69,2.01,3.14,4.46,4.35,7.37,1.82,4.36,2.2,9.1,1.14,14.22-1.05,5.13-3.4,10.6-7.04,16.41-3.64,5.82-8.74,12.34-15.3,19.57,3.43-.96,6.09-1.84,8-2.64,3.71-1.55,7.44-3.9,11.19-7.05,3.74-3.15,7.38-6.8,10.92-10.94,3.54-4.15,7.54-9.28,12.01-15.41l2.77,6.63c-8.16,13.09-15.94,23.67-23.31,31.74-7.38,8.07-14.38,13.49-21,16.25-8.52,3.55-17.51,4.2-26.96,1.94-5.58-1.39-9.5-3.32-11.75-5.79-2.25-2.47-4.41-6.18-6.48-11.13ZM409.63,125.94l-8.47-13.43c-3.69,6.96-12,20.84-24.93,41.65,5.8-1.41,9.99-1.8,12.59-1.19,2.6.62,6.58,2.25,11.94,4.9,5.39-4.42,9.08-8.92,11.05-13.5,1.97-4.58,1.81-9.64-.51-15.18-.27-.66-.55-1.24-.81-1.75-.27-.51-.55-1.01-.86-1.5Z"/>
    <path class="cls-2" d="M480.39,153.28c-1.87,3.01-3.73,5.62-5.58,7.8-1.85,2.19-3.77,3.57-5.74,4.13-3.87,1.11-7.34.38-10.41-2.14-3.07-2.54-5.34-6.34-6.78-11.39-.27-.94-.52-2.09-.73-3.45l-.21-1.18c-.51-3.08,0-6.21,1.41-8.96,4.54-8.89,8.48-17.53,11.8-25.94,4.1-10.33,7.26-20.28,9.53-29.88,4.35-18.54,4.97-33.27,1.84-44.25-1.01-3.55-2-5.98-2.97-7.29-.97-1.31-2.27-1.72-3.94-1.24-1.35.38-3,1.62-4.97,3.71-4.87,5.07-9.5,12.82-13.9,23.24-4.41,10.43-8.17,22.26-11.25,35.49-3.11,13.21-4.96,25.92-5.58,38.09-.34,6.79-.25,12.96.32,18.46.06.6.12,1.2.2,1.78.44,3.66,1.11,7.02,1.99,10.08,1.02,3.58,2.18,6.82,3.48,9.78.15.39.31.77.49,1.13,2.2,4.78,4.77,8.72,7.71,11.82,4.94,5.2,10.21,7.01,15.81,5.4,8.28-2.36,16.53-12.31,24.75-29.8,1.9-4.06,3.81-8.52,5.71-13.39.27-.71.32-1.51.11-2.23l-2.18-7.62c-5.26,8.66-8.85,14.52-10.76,17.6-.05.09-.1.17-.15.24ZM449.73,122.66c-.63-11.91.34-24.2,2.95-36.83,2.71-13.19,5.92-22.44,9.6-27.77,1.1-1.26,1.89-1.94,2.36-2.07,1.26-.36,2.16.37,2.68,2.17.68,2.37.71,6.17.1,11.37-.6,5.21-1.76,11.23-3.48,18.03-1.48,5.79-3.18,11.37-5.12,16.75-.32.93-.67,1.87-1.02,2.8-2.37,6.23-5.02,11.94-7.98,17.13-.04-.52-.06-1.06-.09-1.58Z"/>
  </g>
  <g>
    <path class="cls-3" d="M4.03,176.98H0l3.55-28.48h4.61c.13,5.63.58,9.95,1.34,12.99.77,3.03,1.93,5.12,3.5,6.26,1.57,1.14,3.6,1.71,6.09,1.71,2.37,0,4.61-.46,6.72-1.38,2.11-.92,3.85-2.46,5.23-4.62,1.37-2.15,2.06-5.08,2.06-8.77,0-3.08-.53-5.65-1.58-7.71-1.06-2.06-2.45-3.89-4.17-5.47-1.73-1.58-3.55-3.08-5.47-4.48-2.24-1.76-4.32-3.58-6.24-5.47-1.92-1.89-3.47-4.2-4.65-6.92-1.18-2.72-1.78-6.11-1.78-10.15,0-5.98,1.04-10.99,3.12-15.03,2.08-4.04,4.96-7.1,8.64-9.16,3.68-2.06,7.92-3.1,12.72-3.1,2.3,0,4.21.26,5.71.79,1.5.53,2.77,1.06,3.79,1.58,1.02.53,1.92.79,2.69.79.51,0,1.09-.2,1.73-.59.64-.4,1.15-1.25,1.54-2.57h3.55l-3.74,27.69h-4.32c-.19-8-1.17-13.58-2.93-16.75-1.76-3.16-4.43-4.75-8.01-4.75-3.9,0-6.88,1.05-8.93,3.16-2.05,2.11-3.07,5.23-3.07,9.36,0,2.64.56,4.9,1.68,6.79,1.12,1.89,2.59,3.58,4.41,5.08,1.82,1.5,3.76,2.99,5.81,4.48,2.37,1.67,4.59,3.56,6.67,5.67,2.08,2.11,3.77,4.66,5.09,7.65,1.31,2.99,1.97,6.68,1.97,11.08,0,6.42-1.2,11.87-3.6,16.35-2.4,4.48-5.7,7.91-9.89,10.29-4.19,2.37-8.97,3.56-14.35,3.56-3.01,0-5.28-.33-6.81-.99-1.54-.66-2.67-1.32-3.41-1.98-.74-.66-1.43-.99-2.06-.99-.77,0-1.44.38-2.02,1.12-.58.75-.96,1.74-1.15,2.97Z"/>
    <path class="cls-3" d="M64.49,176.85c-2.88,0-4.91-1.06-6.09-3.17-1.18-2.11-1.78-4.92-1.78-8.44,0-1.49.1-3.08.29-4.75.19-1.67.45-3.38.77-5.14l4.99-28.09c.13-.88.22-1.65.29-2.31.06-.66.1-1.3.1-1.91,0-.88-.21-1.71-.62-2.51-.42-.79-1.26-1.19-2.54-1.19-.83,0-1.86.09-3.07.26v-5.67l16.8-1.45h4.99l-6.91,39.69c-.19,1.06-.34,2.07-.43,3.03-.1.97-.14,1.89-.14,2.77,0,1.67.21,3.03.62,4.09.42,1.06,1.04,1.58,1.87,1.58,1.09,0,2.21-.59,3.36-1.78s2.29-2.79,3.41-4.81c1.12-2.02,2.19-4.31,3.22-6.86,1.02-2.55,1.92-5.25,2.69-8.11.77-2.86,1.37-5.69,1.82-8.5l3.17-20.7h13.53l-6.81,45.89c-.38,2.81-.58,4.7-.58,5.67,0,.53.13,1.03.38,1.52.26.48.77.73,1.54.73,1.09,0,2.1-.44,3.02-1.32.93-.88,1.73-1.82,2.4-2.84.67-1.01,1.1-1.69,1.3-2.04l2.98,3.03c-1.09,2.37-2.34,4.57-3.74,6.59-1.41,2.02-3.17,3.65-5.28,4.88-2.11,1.23-4.77,1.85-7.97,1.85s-5.6-.75-6.81-2.24c-1.22-1.49-1.82-3.47-1.82-5.93,0-1.23.08-2.55.24-3.96.16-1.41.37-2.9.62-4.48h-1.15c-.58,1.14-1.39,2.64-2.45,4.48s-2.34,3.69-3.84,5.54c-1.5,1.85-3.28,3.41-5.33,4.68-2.05,1.27-4.38,1.91-7.01,1.91Z"/>
    <path class="cls-3" d="M127.84,175.27h-13.92l7.1-43.91c.19-1.41.38-2.83.58-4.29.19-1.45.29-2.75.29-3.89,0-1.23-.21-2.2-.62-2.9-.42-.7-1.26-1.06-2.54-1.06-.51,0-1.5.09-2.98.26v-5.54l15.36-1.45h4.9l-3.74,23.74h1.63l-6.05,39.03ZM128.7,164.33l4.32-26.5c.64-1.76,1.26-3.78,1.87-6.06.61-2.28,1.3-4.57,2.06-6.86.77-2.28,1.69-4.39,2.78-6.33,1.09-1.93,2.38-3.49,3.89-4.68,1.5-1.19,3.34-1.78,5.52-1.78,2.05,0,3.71.77,4.99,2.31,1.28,1.54,1.92,3.98,1.92,7.32s-.7,5.78-2.11,7.58c-1.41,1.8-2.94,2.7-4.61,2.7-1.34,0-2.35-.48-3.02-1.45-.67-.97-1.12-1.93-1.34-2.9-.23-.97-.4-1.45-.53-1.45-1.22,0-2.46,1.01-3.74,3.03-1.28,2.02-2.51,4.62-3.69,7.78-1.18,3.16-2.3,6.51-3.36,10.02-1.06,3.52-2.02,6.84-2.88,9.96-.86,3.12-1.55,5.56-2.06,7.32Z"/>
    <path class="cls-3" d="M172.08,177.25c-4.16,0-7.53-1.08-10.13-3.23s-4.48-5.08-5.66-8.77c-1.18-3.69-1.78-7.87-1.78-12.53,0-5.19.66-10.22,1.97-15.1,1.31-4.88,3.21-9.27,5.71-13.18,2.5-3.91,5.5-7.01,9.02-9.3,3.52-2.28,7.49-3.43,11.9-3.43,1.92,0,3.85.33,5.81.99,1.95.66,3.6,1.94,4.94,3.82,1.34,1.89,2.02,4.73,2.02,8.5,0,4.4-.96,8.13-2.88,11.21-1.92,3.08-4.37,5.58-7.34,7.52-2.98,1.93-6.09,3.38-9.36,4.35-3.26.97-6.24,1.58-8.93,1.85v-5.27c2.75-.17,5.25-1.12,7.49-2.83,2.24-1.71,4.05-4.04,5.42-6.99,1.37-2.95,2.06-6.35,2.06-10.22,0-1.93-.22-3.45-.67-4.55-.45-1.1-1.22-1.65-2.3-1.65-1.47,0-2.88.97-4.22,2.9-1.34,1.93-2.53,4.51-3.55,7.71-1.02,3.21-1.84,6.77-2.45,10.68-.61,3.91-.91,7.85-.91,11.8,0,5.72.9,9.61,2.69,11.67,1.79,2.07,4.03,3.1,6.72,3.1s4.96-.77,7.01-2.31c2.05-1.54,4-3.89,5.85-7.05l2.78,3.03c-2.82,6.42-6.05,10.9-9.69,13.45-3.65,2.55-7.49,3.82-11.52,3.82Z"/>
    <path class="cls-3" d="M213.16,177.38c-2.3,0-4.37-.35-6.19-1.06-1.82-.7-3.54-1.67-5.13-2.9h-.58l-1.82,3.3h-3.46l3.55-24.53h3.93c.51,5.89,1.31,10.53,2.4,13.91,1.09,3.38,3.26,5.08,6.53,5.08,2.11,0,3.76-.68,4.94-2.04,1.18-1.36,1.78-3.27,1.78-5.74s-.58-4.59-1.73-6.66c-1.15-2.06-2.88-4.72-5.18-7.98-1.6-2.37-3.04-4.59-4.32-6.66-1.28-2.06-2.29-4.15-3.02-6.26-.74-2.11-1.1-4.48-1.1-7.12,0-5.28,1.42-9.41,4.27-12.4,2.85-2.99,6.48-4.48,10.89-4.48,2.11,0,4.19.35,6.24,1.06,2.05.7,3.77,1.71,5.18,3.03h.48l2.5-3.82h3.07l-2.11,21.36h-3.84c-.32-5.01-1.1-8.9-2.35-11.67-1.25-2.77-3.28-4.15-6.09-4.15-1.86,0-3.23.59-4.13,1.78-.9,1.19-1.34,2.75-1.34,4.68,0,1.32.22,2.62.67,3.89.45,1.28,1.15,2.68,2.11,4.22.96,1.54,2.21,3.41,3.74,5.6,2.62,3.69,4.8,7.08,6.53,10.15,1.73,3.08,2.59,6.64,2.59,10.68s-.91,7.58-2.74,10.35c-1.82,2.77-4.17,4.86-7.05,6.26s-5.95,2.11-9.21,2.11Z"/>
    <path class="cls-3" d="M252.6,175.27h-13.63l12.38-78.46c.32-2.02.48-3.43.48-4.22,0-1.23-.26-2.15-.77-2.77-.51-.61-1.38-.92-2.59-.92-.51,0-1.44.09-2.78.26v-5.54l15.93-1.45h5.28l-6.24,35.21-3.65,18.59h2.11l-6.53,39.29ZM276.11,176.85c-2.5,0-4.37-.38-5.61-1.12-1.25-.75-2.08-1.73-2.5-2.97-.42-1.23-.62-2.46-.62-3.69s.08-2.44.24-3.63c.16-1.19.27-1.96.34-2.31l5.47-29.8c.45-2.55.67-4.39.67-5.54,0-1.06-.18-1.93-.53-2.64-.35-.7-.91-1.05-1.68-1.05-1.15,0-2.38.84-3.69,2.5-1.31,1.67-2.61,3.85-3.89,6.53-1.28,2.68-2.5,5.47-3.65,8.37-1.15,2.9-2.16,5.63-3.02,8.18-.86,2.55-1.52,4.57-1.97,6.06l1.92-18.46c.96-2.2,2.06-4.75,3.31-7.65,1.25-2.9,2.72-5.69,4.41-8.37,1.69-2.68,3.71-4.92,6.05-6.72,2.33-1.8,5.1-2.7,8.3-2.7,2.37,0,4.17.48,5.42,1.45,1.25.97,2.09,2.24,2.54,3.82.45,1.58.67,3.25.67,5.01s-.13,3.49-.38,5.47c-.26,1.98-.48,3.45-.67,4.42l-5.28,29.01c-.26,1.32-.38,2.33-.38,3.03,0,1.76.67,2.64,2.02,2.64,1.6,0,2.96-.79,4.08-2.37,1.12-1.58,2-2.86,2.64-3.82l2.98,3.03c-.83,1.5-1.86,3.3-3.07,5.41-1.22,2.11-2.93,3.96-5.13,5.54-2.21,1.58-5.2,2.37-8.97,2.37Z"/>
  </g>
  <g>
    <path class="cls-3" d="M601.46,175.27h-53.87l.97-5.67c2.64,0,4.63-.31,5.99-.92,1.35-.61,2.35-1.8,2.99-3.56.64-1.76,1.22-4.35,1.74-7.78l7.63-50.24c.51-3.34.74-5.93.67-7.78-.06-1.85-.64-3.14-1.74-3.89-1.09-.75-2.99-1.12-5.69-1.12l.77-5.67h32.15l-.77,5.67c-2.7,0-4.78.38-6.23,1.12-1.45.75-2.51,2.04-3.19,3.89-.68,1.85-1.27,4.48-1.79,7.91l-8.01,52.22c-.45,3.25-.27,5.36.53,6.33.8.97,2.59,1.45,5.36,1.45h5.79c2.64,0,4.88-.31,6.71-.92,1.83-.61,3.41-1.67,4.73-3.16,1.32-1.49,2.54-3.51,3.67-6.06,1.13-2.55,2.33-5.76,3.62-9.63h4.83l-6.85,27.82Z"/>
    <path class="cls-3" d="M628,177.25c-2.45,0-4.75-.75-6.9-2.24-2.16-1.49-3.89-4-5.21-7.52-1.32-3.52-1.98-8.26-1.98-14.24s.71-11.76,2.12-16.81c1.41-5.05,3.33-9.43,5.74-13.12,2.41-3.69,5.16-6.53,8.25-8.5,3.09-1.98,6.27-2.97,9.56-2.97,3.09,0,5.32.77,6.71,2.31,1.38,1.54,2.59,3.19,3.62,4.94h.58l3.86-6.2h7.92l-6.85,44.83c-.32,2.2-.48,3.78-.48,4.75,0,.88.14,1.69.44,2.44.29.75.95,1.12,1.98,1.12.9,0,1.69-.28,2.37-.86.67-.57,1.3-1.3,1.88-2.18.58-.88,1.13-1.76,1.64-2.64l3.09,3.3c-.77,1.67-1.79,3.54-3.04,5.6-1.26,2.07-2.96,3.85-5.12,5.34-2.16,1.49-4.94,2.24-8.35,2.24-2.45,0-4.3-.57-5.55-1.71s-1.88-3.3-1.88-6.46v-1.32c0-.44.03-.92.1-1.45h-.77c-1.93,3.52-3.93,6.29-5.99,8.31-2.06,2.02-4.63,3.03-7.72,3.03ZM633.5,166.3c1.67,0,3.07-.59,4.2-1.78,1.13-1.19,2.11-2.97,2.95-5.34.83-2.37,1.61-5.27,2.32-8.7.39-1.93.76-4.04,1.11-6.33.35-2.28.66-4.64.92-7.05.26-2.42.39-4.72.39-6.92,0-3.6-.4-6.57-1.21-8.9-.81-2.33-2.24-3.49-4.3-3.49-1.93,0-3.64.99-5.12,2.97-1.48,1.98-2.74,4.64-3.76,7.98-1.03,3.34-1.8,7.05-2.32,11.14-.52,4.09-.77,8.24-.77,12.46,0,5.54.48,9.25,1.45,11.14.97,1.89,2.35,2.83,4.15,2.83Z"/>
    <path class="cls-3" d="M685.05,175.27h-13.71l7.72-48.13c.26-1.93.39-3.34.39-4.22,0-1.23-.23-2.15-.68-2.77-.45-.61-1.32-.92-2.61-.92-.52,0-1.51.09-2.99.26v-5.54l16.99-1.45h3.57l-4.15,21.63h2.32l-6.85,41.14ZM711.5,175.27h-13.8c1.22-6.15,2.2-11.12,2.94-14.9.74-3.78,1.35-6.96,1.83-9.56.48-2.59.93-5.1,1.35-7.52.42-2.42.92-5.38,1.5-8.9.06-.17.18-.88.34-2.11.16-1.23.24-2.46.24-3.69s-.14-2.28-.44-3.16c-.29-.88-.85-1.32-1.69-1.32-1.29,0-2.7,1.1-4.25,3.3-1.54,2.2-3.07,5.08-4.59,8.64s-2.91,7.41-4.2,11.54c-1.29,4.13-2.38,8.09-3.28,11.87l2.7-24c.9-1.85,1.98-4.11,3.23-6.79,1.25-2.68,2.75-5.32,4.49-7.91,1.74-2.59,3.73-4.75,5.99-6.46,2.25-1.71,4.83-2.57,7.72-2.57,3.15,0,5.23.99,6.23,2.97,1,1.98,1.5,4.11,1.5,6.39,0,1.67-.13,3.28-.39,4.81-.26,1.54-.42,2.4-.48,2.57l-1.35,6.07h1.35l-4.83,27.16-2.12,13.58ZM734,176.85c-3.54,0-5.87-.86-7-2.57-1.13-1.71-1.69-3.58-1.69-5.6,0-.97.06-1.96.19-2.97.13-1.01.23-1.69.29-2.04l5.02-23.6c.32-1.41.66-3.27,1.01-5.6.35-2.33.53-4.29.53-5.87,0-1.14-.14-2.18-.43-3.1-.29-.92-.82-1.38-1.59-1.38-1.03,0-2.16.84-3.38,2.5-1.22,1.67-2.49,3.91-3.81,6.73-1.32,2.81-2.59,5.87-3.81,9.16-1.22,3.3-2.33,6.62-3.33,9.96-1,3.34-1.79,6.42-2.36,9.23l3.67-24.79c1.41-3.78,2.9-7.21,4.44-10.29,1.54-3.08,3.2-5.71,4.97-7.91,1.77-2.2,3.65-3.89,5.65-5.08,1.99-1.19,4.15-1.78,6.47-1.78,3.09,0,5.12.95,6.08,2.84.97,1.89,1.45,4.11,1.45,6.66,0,1.85-.13,3.82-.39,5.93-.26,2.11-.45,3.43-.58,3.96l-5.7,29.8c-.19,1.32-.29,2.33-.29,3.03,0,1.76.68,2.64,2.03,2.64,1.48,0,2.77-.73,3.86-2.18,1.09-1.45,2.03-2.79,2.8-4.02l2.99,3.03c-.26.53-.76,1.52-1.5,2.97-.74,1.45-1.77,2.97-3.09,4.55-1.32,1.58-3.01,2.95-5.07,4.09s-4.54,1.71-7.43,1.71Z"/>
    <path class="cls-3" d="M769.42,177.38c-2.32,0-4.39-.35-6.23-1.06-1.83-.7-3.56-1.67-5.16-2.9h-.58l-1.84,3.3h-3.48l3.57-24.53h3.96c.51,5.89,1.32,10.53,2.41,13.91,1.09,3.38,3.28,5.08,6.56,5.08,2.12,0,3.78-.68,4.97-2.04,1.19-1.36,1.79-3.27,1.79-5.74s-.58-4.59-1.74-6.66c-1.16-2.06-2.9-4.72-5.21-7.98-1.61-2.37-3.06-4.59-4.34-6.66-1.29-2.06-2.3-4.15-3.04-6.26-.74-2.11-1.11-4.48-1.11-7.12,0-5.28,1.43-9.41,4.3-12.4,2.86-2.99,6.52-4.48,10.96-4.48,2.12,0,4.21.35,6.27,1.06,2.06.7,3.8,1.71,5.21,3.03h.48l2.51-3.82h3.09l-2.12,21.36h-3.86c-.32-5.01-1.11-8.9-2.37-11.67-1.25-2.77-3.3-4.15-6.13-4.15-1.87,0-3.25.59-4.15,1.78-.9,1.19-1.35,2.75-1.35,4.68,0,1.32.23,2.62.68,3.89.45,1.28,1.16,2.68,2.12,4.22.97,1.54,2.22,3.41,3.77,5.6,2.64,3.69,4.83,7.08,6.56,10.15,1.74,3.08,2.61,6.64,2.61,10.68s-.92,7.58-2.75,10.35c-1.83,2.77-4.2,4.86-7.1,6.26-2.9,1.41-5.99,2.11-9.27,2.11Z"/>
    <path class="cls-3" d="M810.26,177.25c-2.45,0-4.75-.75-6.9-2.24-2.16-1.49-3.89-4-5.21-7.52-1.32-3.52-1.98-8.26-1.98-14.24s.71-11.76,2.12-16.81c1.41-5.05,3.33-9.43,5.74-13.12,2.41-3.69,5.16-6.53,8.25-8.5,3.09-1.98,6.27-2.97,9.56-2.97,3.09,0,5.32.77,6.71,2.31,1.38,1.54,2.59,3.19,3.62,4.94h.58l3.86-6.2h7.92l-6.85,44.83c-.32,2.2-.48,3.78-.48,4.75,0,.88.14,1.69.44,2.44.29.75.95,1.12,1.98,1.12.9,0,1.69-.28,2.37-.86.67-.57,1.3-1.3,1.88-2.18.58-.88,1.13-1.76,1.64-2.64l3.09,3.3c-.77,1.67-1.79,3.54-3.04,5.6-1.26,2.07-2.96,3.85-5.12,5.34-2.16,1.49-4.94,2.24-8.35,2.24-2.45,0-4.3-.57-5.55-1.71s-1.88-3.3-1.88-6.46v-1.32c0-.44.03-.92.1-1.45h-.77c-1.93,3.52-3.93,6.29-5.99,8.31-2.06,2.02-4.63,3.03-7.72,3.03ZM815.76,166.3c1.67,0,3.07-.59,4.2-1.78,1.13-1.19,2.11-2.97,2.95-5.34.83-2.37,1.61-5.27,2.32-8.7.39-1.93.76-4.04,1.11-6.33.35-2.28.66-4.64.92-7.05.26-2.42.39-4.72.39-6.92,0-3.6-.4-6.57-1.21-8.9-.81-2.33-2.24-3.49-4.3-3.49-1.93,0-3.64.99-5.12,2.97-1.48,1.98-2.74,4.64-3.76,7.98-1.03,3.34-1.8,7.05-2.32,11.14-.52,4.09-.77,8.24-.77,12.46,0,5.54.48,9.25,1.45,11.14.97,1.89,2.35,2.83,4.15,2.83Z"/>
    <path class="cls-3" d="M862,176.85c-3.35,0-5.57-.86-6.66-2.57s-1.64-3.71-1.64-6c0-1.49.11-3.17.34-5.01.23-1.85.53-4.17.92-6.99l8.69-59.34c.19-1.85.29-3.3.29-4.35,0-.88-.18-1.73-.53-2.57-.35-.83-1.17-1.25-2.46-1.25-.84,0-1.87.09-3.09.26v-5.27l17.28-1.45h3.96l-10.91,75.82c-.39,3.08-.58,5.1-.58,6.07,0,.88.21,1.52.63,1.91.42.39.92.59,1.5.59,1.61,0,2.94-.75,4.01-2.24,1.06-1.49,1.98-2.81,2.75-3.96l2.99,3.03c-1.03,2.11-2.22,4.18-3.57,6.2-1.35,2.02-3.12,3.71-5.31,5.08-2.19,1.36-5.05,2.04-8.59,2.04Z"/>
  </g>
</svg>